STARTFONT 2.1
FONT --Aa140Gvp-Regular-R-Normal--18-140-92-92-P-97-GEM-0
SIZE 14 92 92
FONTBOUNDINGBOX 22 21 0 -4
METRICSSET 2
STARTPROPERTIES 20
FONT_ASCENT 14
FONT_DESCENT 4
PIXEL_SIZE 18
RESOLUTION_X 92
RESOLUTION_Y 92
POINT_SIZE 140
FACE_NAME "Swiss"
FOUNDRY ""
FAMILY_NAME "Aa140Gvp"
WEIGHT_NAME "Regular"
RELATIVE_WEIGHT 50
SLANT "R"
SPACING "P"
SETWIDTH_NAME "Normal"
RELATIVE_SETWIDTH 50
ADD_STYLE_NAME ""
AVERAGE_WIDTH 97
CHARSET_REGISTRY "GEM"
CHARSET_ENCODING "0"
GDOS "font-id=2 left-offset=2 right-offset=6"
ENDPROPERTIES
CHARS 194
STARTCHAR space
ENCODING 32
SWIDTH 280 0
DWIDTH 5 0
BBX 0 0 5 17
VVECTOR 8 17
SWIDTH1 0 -1174
DWIDTH1 0 -21
BITMAP 
ENDCHAR
STARTCHAR exclam
ENCODING 33
SWIDTH 335 0
DWIDTH 6 0
BBX 2 13 2 0
VVECTOR 3 17
SWIDTH1 0 -1174
DWIDTH1 0 -21
BITMAP 
C0
C0
C0
C0
C0
C0
C0
C0
C0
C0
00
C0
C0
ENDCHAR
STARTCHAR quotedbl
ENCODING 34
SWIDTH 280 0
DWIDTH 5 0
BBX 3 5 1 8
VVECTOR 3 17
SWIDTH1 0 -1174
DWIDTH1 0 -21
BITMAP 
A0
A0
A0
A0
A0
ENDCHAR
STARTCHAR numbersign
ENCODING 35
SWIDTH 783 0
DWIDTH 14 0
BBX 12 12 1 1
VVECTOR 7 17
SWIDTH1 0 -1174
DWIDTH1 0 -21
BITMAP 
0260
0640
0440
04C0
7FF0
0980
1900
FFE0
3300
3200
2600
6600
ENDCHAR
STARTCHAR dollar
ENCODING 36
SWIDTH 559 0
DWIDTH 10 0
BBX 9 16 1 -2
VVECTOR 6 17
SWIDTH1 0 -1174
DWIDTH1 0 -21
BITMAP 
0800
0800
3E00
EB00
C980
C800
E800
3C00
0F00
0980
C980
C980
EB00
3E00
0800
0800
ENDCHAR
STARTCHAR percent
ENCODING 37
SWIDTH 839 0
DWIDTH 15 0
BBX 14 12 1 0
VVECTOR 9 17
SWIDTH1 0 -1174
DWIDTH1 0 -21
BITMAP 
7820
CC40
8440
8480
CD80
7900
0278
06CC
0484
0884
08CC
1078
ENDCHAR
STARTCHAR ampersand
ENCODING 38
SWIDTH 671 0
DWIDTH 12 0
BBX 11 13 1 0
VVECTOR 7 17
SWIDTH1 0 -1174
DWIDTH1 0 -21
BITMAP 
1C00
2600
2600
2600
1800
3800
6CC0
C5C0
C780
C380
67C0
7CC0
3860
ENDCHAR
STARTCHAR quotesingle
ENCODING 39
SWIDTH 224 0
DWIDTH 4 0
BBX 2 4 1 9
VVECTOR 2 17
SWIDTH1 0 -1174
DWIDTH1 0 -21
BITMAP 
C0
C0
40
80
ENDCHAR
STARTCHAR parenleft
ENCODING 40
SWIDTH 335 0
DWIDTH 6 0
BBX 4 16 2 -3
VVECTOR 5 17
SWIDTH1 0 -1174
DWIDTH1 0 -21
BITMAP 
10
20
20
60
40
C0
C0
C0
C0
C0
C0
40
60
20
20
10
ENDCHAR
STARTCHAR parenright
ENCODING 41
SWIDTH 335 0
DWIDTH 6 0
BBX 4 16 0 -3
VVECTOR 1 17
SWIDTH1 0 -1174
DWIDTH1 0 -21
BITMAP 
80
40
40
60
20
30
30
30
30
30
30
20
60
40
40
80
ENDCHAR
STARTCHAR asterisk
ENCODING 42
SWIDTH 503 0
DWIDTH 9 0
BBX 7 7 1 6
VVECTOR 5 17
SWIDTH1 0 -1174
DWIDTH1 0 -21
BITMAP 
10
10
D6
FC
38
6C
44
ENDCHAR
STARTCHAR plus
ENCODING 43
SWIDTH 839 0
DWIDTH 15 0
BBX 11 11 2 0
VVECTOR 8 17
SWIDTH1 0 -1174
DWIDTH1 0 -21
BITMAP 
0400
0400
0400
0400
0400
FFE0
0400
0400
0400
0400
0400
ENDCHAR
STARTCHAR comma
ENCODING 44
SWIDTH 280 0
DWIDTH 5 0
BBX 2 4 1 -2
VVECTOR 2 17
SWIDTH1 0 -1174
DWIDTH1 0 -21
BITMAP 
C0
C0
40
80
ENDCHAR
STARTCHAR hyphen
ENCODING 45
SWIDTH 335 0
DWIDTH 6 0
BBX 5 1 1 5
VVECTOR 4 17
SWIDTH1 0 -1174
DWIDTH1 0 -21
BITMAP 
F8
ENDCHAR
STARTCHAR period
ENCODING 46
SWIDTH 280 0
DWIDTH 5 0
BBX 2 2 1 0
VVECTOR 2 17
SWIDTH1 0 -1174
DWIDTH1 0 -21
BITMAP 
C0
C0
ENDCHAR
STARTCHAR slash
ENCODING 47
SWIDTH 280 0
DWIDTH 5 0
BBX 5 14 0 -1
VVECTOR 3 17
SWIDTH1 0 -1174
DWIDTH1 0 -21
BITMAP 
08
08
10
10
10
20
20
20
20
40
40
40
80
80
ENDCHAR
STARTCHAR zero
ENCODING 48
SWIDTH 559 0
DWIDTH 10 0
BBX 9 12 1 0
VVECTOR 6 17
SWIDTH1 0 -1174
DWIDTH1 0 -21
BITMAP 
3E00
6300
4100
C180
C180
C180
C180
C180
C180
4100
6300
3E00
ENDCHAR
STARTCHAR one
ENCODING 49
SWIDTH 559 0
DWIDTH 10 0
BBX 5 12 1 0
VVECTOR 2 17
SWIDTH1 0 -1174
DWIDTH1 0 -21
BITMAP 
18
38
F8
18
18
18
18
18
18
18
18
18
ENDCHAR
STARTCHAR two
ENCODING 50
SWIDTH 559 0
DWIDTH 10 0
BBX 9 12 1 0
VVECTOR 6 17
SWIDTH1 0 -1174
DWIDTH1 0 -21
BITMAP 
3E00
6300
C180
C180
0180
0300
0E00
1C00
7000
6000
C000
FF80
ENDCHAR
STARTCHAR three
ENCODING 51
SWIDTH 559 0
DWIDTH 10 0
BBX 9 12 1 0
VVECTOR 6 17
SWIDTH1 0 -1174
DWIDTH1 0 -21
BITMAP 
3E00
6300
4300
C100
0300
0E00
0380
0180
C180
C180
6300
3E00
ENDCHAR
STARTCHAR four
ENCODING 52
SWIDTH 559 0
DWIDTH 10 0
BBX 9 12 1 0
VVECTOR 6 17
SWIDTH1 0 -1174
DWIDTH1 0 -21
BITMAP 
0600
0E00
1E00
1600
3600
6600
4600
C600
FF80
0600
0600
0600
ENDCHAR
STARTCHAR five
ENCODING 53
SWIDTH 559 0
DWIDTH 10 0
BBX 9 12 1 0
VVECTOR 6 17
SWIDTH1 0 -1174
DWIDTH1 0 -21
BITMAP 
7F00
6000
6000
4000
7E00
E300
0180
0180
0180
C180
6300
3E00
ENDCHAR
STARTCHAR six
ENCODING 54
SWIDTH 559 0
DWIDTH 10 0
BBX 9 12 1 0
VVECTOR 6 17
SWIDTH1 0 -1174
DWIDTH1 0 -21
BITMAP 
1E00
6300
6180
C000
DE00
E300
C180
C180
C180
4180
6300
3E00
ENDCHAR
STARTCHAR seven
ENCODING 55
SWIDTH 559 0
DWIDTH 10 0
BBX 9 12 1 0
VVECTOR 6 17
SWIDTH1 0 -1174
DWIDTH1 0 -21
BITMAP 
FF80
0100
0300
0600
0C00
0C00
1800
1800
1800
3000
3000
3000
ENDCHAR
STARTCHAR eight
ENCODING 56
SWIDTH 559 0
DWIDTH 10 0
BBX 9 12 1 0
VVECTOR 6 17
SWIDTH1 0 -1174
DWIDTH1 0 -21
BITMAP 
3E00
6300
C100
4100
6300
3E00
6300
C180
C180
C180
6300
3E00
ENDCHAR
STARTCHAR nine
ENCODING 57
SWIDTH 559 0
DWIDTH 10 0
BBX 9 12 1 0
VVECTOR 6 17
SWIDTH1 0 -1174
DWIDTH1 0 -21
BITMAP 
3E00
6300
C100
C180
C180
C180
6380
3D80
0180
C300
6300
3C00
ENDCHAR
STARTCHAR colon
ENCODING 58
SWIDTH 280 0
DWIDTH 5 0
BBX 2 9 2 0
VVECTOR 4 17
SWIDTH1 0 -1174
DWIDTH1 0 -21
BITMAP 
C0
C0
00
00
00
00
00
C0
C0
ENDCHAR
STARTCHAR semicolon
ENCODING 59
SWIDTH 280 0
DWIDTH 5 0
BBX 2 11 2 -2
VVECTOR 4 17
SWIDTH1 0 -1174
DWIDTH1 0 -21
BITMAP 
C0
C0
00
00
00
00
00
C0
C0
40
80
ENDCHAR
STARTCHAR less
ENCODING 60
SWIDTH 839 0
DWIDTH 15 0
BBX 10 10 2 1
VVECTOR 7 17
SWIDTH1 0 -1174
DWIDTH1 0 -21
BITMAP 
0040
01C0
0F00
3800
E000
E000
3800
0E00
01C0
0040
ENDCHAR
STARTCHAR equal
ENCODING 61
SWIDTH 839 0
DWIDTH 15 0
BBX 11 4 2 4
VVECTOR 8 17
SWIDTH1 0 -1174
DWIDTH1 0 -21
BITMAP 
FFE0
0000
0000
FFE0
ENDCHAR
STARTCHAR greater
ENCODING 62
SWIDTH 839 0
DWIDTH 15 0
BBX 10 10 3 1
VVECTOR 9 17
SWIDTH1 0 -1174
DWIDTH1 0 -21
BITMAP 
8000
E000
3C00
0700
01C0
01C0
0700
1C00
E000
8000
ENDCHAR
STARTCHAR question
ENCODING 63
SWIDTH 503 0
DWIDTH 9 0
BBX 8 13 0 0
VVECTOR 4 17
SWIDTH1 0 -1174
DWIDTH1 0 -21
BITMAP 
3C
67
C3
C3
03
06
0C
18
18
00
00
18
18
ENDCHAR
STARTCHAR at
ENCODING 64
SWIDTH 1006 0
DWIDTH 18 0
BBX 16 16 1 -3
VVECTOR 9 17
SWIDTH1 0 -1174
DWIDTH1 0 -21
BITMAP 
07F0
1C1C
3006
6003
43D1
C671
8C21
8821
8863
8862
8CE6
4738
6000
3004
1818
07E0
ENDCHAR
STARTCHAR A
ENCODING 65
SWIDTH 615 0
DWIDTH 11 0
BBX 11 13 0 0
VVECTOR 6 17
SWIDTH1 0 -1174
DWIDTH1 0 -21
BITMAP 
0E00
0E00
0A00
1B00
1B00
1100
3180
3180
3F80
60C0
60C0
4040
C060
ENDCHAR
STARTCHAR B
ENCODING 66
SWIDTH 671 0
DWIDTH 12 0
BBX 10 13 1 0
VVECTOR 6 17
SWIDTH1 0 -1174
DWIDTH1 0 -21
BITMAP 
FF00
C180
C180
C180
C180
C180
FF00
C180
C0C0
C0C0
C0C0
C180
FF00
ENDCHAR
STARTCHAR C
ENCODING 67
SWIDTH 727 0
DWIDTH 13 0
BBX 11 13 1 0
VVECTOR 7 17
SWIDTH1 0 -1174
DWIDTH1 0 -21
BITMAP 
0F00
3F80
30C0
6060
C000
C000
C000
C000
C060
6060
30C0
3F80
0F00
ENDCHAR
STARTCHAR D
ENCODING 68
SWIDTH 671 0
DWIDTH 12 0
BBX 10 13 1 0
VVECTOR 6 17
SWIDTH1 0 -1174
DWIDTH1 0 -21
BITMAP 
FE00
C380
C180
C0C0
C0C0
C0C0
C0C0
C0C0
C0C0
C0C0
C180
C300
FE00
ENDCHAR
STARTCHAR E
ENCODING 69
SWIDTH 615 0
DWIDTH 11 0
BBX 9 13 1 0
VVECTOR 6 17
SWIDTH1 0 -1174
DWIDTH1 0 -21
BITMAP 
FF80
C000
C000
C000
C000
C000
FF00
C000
C000
C000
C000
C000
FF80
ENDCHAR
STARTCHAR F
ENCODING 70
SWIDTH 559 0
DWIDTH 10 0
BBX 8 13 1 0
VVECTOR 5 17
SWIDTH1 0 -1174
DWIDTH1 0 -21
BITMAP 
FF
C0
C0
C0
C0
C0
FE
C0
C0
C0
C0
C0
C0
ENDCHAR
STARTCHAR G
ENCODING 71
SWIDTH 727 0
DWIDTH 13 0
BBX 11 13 1 0
VVECTOR 7 17
SWIDTH1 0 -1174
DWIDTH1 0 -21
BITMAP 
0F00
1F80
30C0
6060
C000
C000
C3E0
C060
C060
60E0
31E0
1F60
0E20
ENDCHAR
STARTCHAR H
ENCODING 72
SWIDTH 727 0
DWIDTH 13 0
BBX 11 13 1 0
VVECTOR 7 17
SWIDTH1 0 -1174
DWIDTH1 0 -21
BITMAP 
C060
C060
C060
C060
C060
C060
FFE0
C060
C060
C060
C060
C060
C060
ENDCHAR
STARTCHAR I
ENCODING 73
SWIDTH 224 0
DWIDTH 4 0
BBX 2 13 1 0
VVECTOR 2 17
SWIDTH1 0 -1174
DWIDTH1 0 -21
BITMAP 
C0
C0
C0
C0
C0
C0
C0
C0
C0
C0
C0
C0
C0
ENDCHAR
STARTCHAR J
ENCODING 74
SWIDTH 503 0
DWIDTH 9 0
BBX 8 13 0 0
VVECTOR 4 17
SWIDTH1 0 -1174
DWIDTH1 0 -21
BITMAP 
03
03
03
03
03
03
03
03
C3
C3
E7
7E
3C
ENDCHAR
STARTCHAR K
ENCODING 75
SWIDTH 671 0
DWIDTH 12 0
BBX 11 13 1 0
VVECTOR 7 17
SWIDTH1 0 -1174
DWIDTH1 0 -21
BITMAP 
C0E0
C180
C300
C600
CC00
DC00
FC00
E600
C300
C300
C180
C0C0
C0E0
ENDCHAR
STARTCHAR L
ENCODING 76
SWIDTH 503 0
DWIDTH 9 0
BBX 8 13 1 0
VVECTOR 6 17
SWIDTH1 0 -1174
DWIDTH1 0 -21
BITMAP 
C0
C0
C0
C0
C0
C0
C0
C0
C0
C0
C0
C0
FF
ENDCHAR
STARTCHAR M
ENCODING 77
SWIDTH 839 0
DWIDTH 15 0
BBX 13 13 1 0
VVECTOR 8 17
SWIDTH1 0 -1174
DWIDTH1 0 -21
BITMAP 
E038
E038
F078
F078
D058
D8D8
D8D8
C898
CD98
CD18
C518
C718
C618
ENDCHAR
STARTCHAR N
ENCODING 78
SWIDTH 727 0
DWIDTH 13 0
BBX 11 13 1 0
VVECTOR 7 17
SWIDTH1 0 -1174
DWIDTH1 0 -21
BITMAP 
E060
E060
F060
D860
D860
CC60
C460
C660
C360
C360
C1E0
C0E0
C0E0
ENDCHAR
STARTCHAR O
ENCODING 79
SWIDTH 783 0
DWIDTH 14 0
BBX 12 13 1 0
VVECTOR 7 17
SWIDTH1 0 -1174
DWIDTH1 0 -21
BITMAP 
0F00
1F80
30C0
6060
C030
C030
C030
C030
C030
6060
30C0
1F80
0F00
ENDCHAR
STARTCHAR P
ENCODING 80
SWIDTH 615 0
DWIDTH 11 0
BBX 9 13 1 0
VVECTOR 6 17
SWIDTH1 0 -1174
DWIDTH1 0 -21
BITMAP 
FF00
C380
C180
C180
C180
C380
FE00
C000
C000
C000
C000
C000
C000
ENDCHAR
STARTCHAR Q
ENCODING 81
SWIDTH 783 0
DWIDTH 14 0
BBX 12 14 1 -1
VVECTOR 7 17
SWIDTH1 0 -1174
DWIDTH1 0 -21
BITMAP 
0F00
1F80
30C0
6060
C030
C030
C030
C030
C030
6360
30C0
1FE0
0F30
0020
ENDCHAR
STARTCHAR R
ENCODING 82
SWIDTH 671 0
DWIDTH 12 0
BBX 10 13 1 0
VVECTOR 6 17
SWIDTH1 0 -1174
DWIDTH1 0 -21
BITMAP 
FF80
C1C0
C0C0
C0C0
C0C0
C180
FF00
C1C0
C0C0
C0C0
C0C0
C0C0
C0C0
ENDCHAR
STARTCHAR S
ENCODING 83
SWIDTH 615 0
DWIDTH 11 0
BBX 9 13 1 0
VVECTOR 6 17
SWIDTH1 0 -1174
DWIDTH1 0 -21
BITMAP 
1C00
3E00
6300
C180
C000
7800
1F00
0380
C180
C180
E300
7E00
1C00
ENDCHAR
STARTCHAR T
ENCODING 84
SWIDTH 559 0
DWIDTH 10 0
BBX 10 13 0 0
VVECTOR 5 17
SWIDTH1 0 -1174
DWIDTH1 0 -21
BITMAP 
FFC0
0C00
0C00
0C00
0C00
0C00
0C00
0C00
0C00
0C00
0C00
0C00
0C00
ENDCHAR
STARTCHAR U
ENCODING 85
SWIDTH 727 0
DWIDTH 13 0
BBX 11 13 1 0
VVECTOR 7 17
SWIDTH1 0 -1174
DWIDTH1 0 -21
BITMAP 
C060
C060
C060
C060
C060
C060
C060
C060
C060
C060
60C0
3F80
1F00
ENDCHAR
STARTCHAR V
ENCODING 86
SWIDTH 559 0
DWIDTH 10 0
BBX 10 13 0 0
VVECTOR 5 17
SWIDTH1 0 -1174
DWIDTH1 0 -21
BITMAP 
C0C0
C0C0
4080
6180
6180
2100
3300
3300
1200
1E00
1E00
0C00
0C00
ENDCHAR
STARTCHAR W
ENCODING 87
SWIDTH 894 0
DWIDTH 16 0
BBX 16 13 0 0
VVECTOR 8 17
SWIDTH1 0 -1174
DWIDTH1 0 -21
BITMAP 
C103
C382
4386
4286
6286
66CC
24CC
244C
3458
3C78
3C78
1830
1830
ENDCHAR
STARTCHAR X
ENCODING 88
SWIDTH 615 0
DWIDTH 11 0
BBX 11 13 0 0
VVECTOR 6 17
SWIDTH1 0 -1174
DWIDTH1 0 -21
BITMAP 
E0E0
60C0
3180
1B00
1B00
0E00
0E00
0E00
1B00
3180
3180
60C0
C0E0
ENDCHAR
STARTCHAR Y
ENCODING 89
SWIDTH 671 0
DWIDTH 12 0
BBX 12 13 0 0
VVECTOR 6 17
SWIDTH1 0 -1174
DWIDTH1 0 -21
BITMAP 
E070
6060
30C0
30C0
1980
0F00
0F00
0600
0600
0600
0600
0600
0600
ENDCHAR
STARTCHAR Z
ENCODING 90
SWIDTH 615 0
DWIDTH 11 0
BBX 10 13 1 0
VVECTOR 7 17
SWIDTH1 0 -1174
DWIDTH1 0 -21
BITMAP 
7FC0
00C0
0180
0300
0700
0600
0C00
1800
1800
3000
6000
E000
FFC0
ENDCHAR
STARTCHAR bracketleft
ENCODING 91
SWIDTH 335 0
DWIDTH 6 0
BBX 4 16 2 -3
VVECTOR 5 17
SWIDTH1 0 -1174
DWIDTH1 0 -21
BITMAP 
F0
C0
C0
C0
C0
C0
C0
C0
C0
C0
C0
C0
C0
C0
C0
F0
ENDCHAR
STARTCHAR backslash
ENCODING 92
SWIDTH 280 0
DWIDTH 5 0
BBX 5 14 0 -1
VVECTOR 3 17
SWIDTH1 0 -1174
DWIDTH1 0 -21
BITMAP 
80
80
40
40
40
20
20
20
20
10
10
10
08
08
ENDCHAR
STARTCHAR bracketright
ENCODING 93
SWIDTH 335 0
DWIDTH 6 0
BBX 4 16 0 -3
VVECTOR 1 17
SWIDTH1 0 -1174
DWIDTH1 0 -21
BITMAP 
F0
30
30
30
30
30
30
30
30
30
30
30
30
30
30
F0
ENDCHAR
STARTCHAR asciicircum
ENCODING 94
SWIDTH 1006 0
DWIDTH 18 0
BBX 11 5 3 8
VVECTOR 8 17
SWIDTH1 0 -1174
DWIDTH1 0 -21
BITMAP 
0E00
1B00
3180
60C0
C060
ENDCHAR
STARTCHAR underscore
ENCODING 95
SWIDTH 503 0
DWIDTH 9 0
BBX 9 1 0 -4
VVECTOR 5 17
SWIDTH1 0 -1174
DWIDTH1 0 -21
BITMAP 
FF80
ENDCHAR
STARTCHAR grave
ENCODING 96
SWIDTH 224 0
DWIDTH 4 0
BBX 2 4 1 9
VVECTOR 2 17
SWIDTH1 0 -1174
DWIDTH1 0 -21
BITMAP 
40
80
C0
C0
ENDCHAR
STARTCHAR a
ENCODING 97
SWIDTH 559 0
DWIDTH 10 0
BBX 9 9 1 0
VVECTOR 6 17
SWIDTH1 0 -1174
DWIDTH1 0 -21
BITMAP 
3E00
6300
4300
0300
3F00
E300
C300
C700
7B80
ENDCHAR
STARTCHAR b
ENCODING 98
SWIDTH 559 0
DWIDTH 10 0
BBX 8 13 1 0
VVECTOR 5 17
SWIDTH1 0 -1174
DWIDTH1 0 -21
BITMAP 
C0
C0
C0
C0
DC
E6
C3
C3
C3
C3
C3
E6
DC
ENDCHAR
STARTCHAR c
ENCODING 99
SWIDTH 503 0
DWIDTH 9 0
BBX 8 9 1 0
VVECTOR 6 17
SWIDTH1 0 -1174
DWIDTH1 0 -21
BITMAP 
3C
66
C3
C0
C0
C0
C3
66
3C
ENDCHAR
STARTCHAR d
ENCODING 100
SWIDTH 559 0
DWIDTH 10 0
BBX 8 13 1 0
VVECTOR 5 17
SWIDTH1 0 -1174
DWIDTH1 0 -21
BITMAP 
03
03
03
03
3B
67
C3
C3
C3
C3
C3
67
3B
ENDCHAR
STARTCHAR e
ENCODING 101
SWIDTH 559 0
DWIDTH 10 0
BBX 8 9 1 0
VVECTOR 5 17
SWIDTH1 0 -1174
DWIDTH1 0 -21
BITMAP 
3C
66
43
C3
FF
C0
C3
66
3C
ENDCHAR
STARTCHAR f
ENCODING 102
SWIDTH 280 0
DWIDTH 5 0
BBX 5 13 0 0
VVECTOR 3 17
SWIDTH1 0 -1174
DWIDTH1 0 -21
BITMAP 
38
60
60
60
F8
60
60
60
60
60
60
60
60
ENDCHAR
STARTCHAR g
ENCODING 103
SWIDTH 559 0
DWIDTH 10 0
BBX 8 12 1 -3
VVECTOR 5 17
SWIDTH1 0 -1174
DWIDTH1 0 -21
BITMAP 
3F
67
C3
C3
C3
C3
C3
67
3B
03
C3
3C
ENDCHAR
STARTCHAR h
ENCODING 104
SWIDTH 559 0
DWIDTH 10 0
BBX 8 13 1 0
VVECTOR 5 17
SWIDTH1 0 -1174
DWIDTH1 0 -21
BITMAP 
C0
C0
C0
C0
DE
E3
C3
C3
C3
C3
C3
C3
C3
ENDCHAR
STARTCHAR i
ENCODING 105
SWIDTH 224 0
DWIDTH 4 0
BBX 2 13 1 0
VVECTOR 2 17
SWIDTH1 0 -1174
DWIDTH1 0 -21
BITMAP 
C0
C0
00
00
C0
C0
C0
C0
C0
C0
C0
C0
C0
ENDCHAR
STARTCHAR j
ENCODING 106
SWIDTH 224 0
DWIDTH 4 0
BBX 3 16 0 -3
VVECTOR 1 17
SWIDTH1 0 -1174
DWIDTH1 0 -21
BITMAP 
60
60
00
00
60
60
60
60
60
60
60
60
60
60
60
C0
ENDCHAR
STARTCHAR k
ENCODING 107
SWIDTH 503 0
DWIDTH 9 0
BBX 8 13 1 0
VVECTOR 6 17
SWIDTH1 0 -1174
DWIDTH1 0 -21
BITMAP 
C0
C0
C0
C0
C3
C4
C8
D8
E8
CC
C6
C6
C3
ENDCHAR
STARTCHAR l
ENCODING 108
SWIDTH 224 0
DWIDTH 4 0
BBX 2 13 1 0
VVECTOR 2 17
SWIDTH1 0 -1174
DWIDTH1 0 -21
BITMAP 
C0
C0
C0
C0
C0
C0
C0
C0
C0
C0
C0
C0
C0
ENDCHAR
STARTCHAR m
ENCODING 109
SWIDTH 783 0
DWIDTH 14 0
BBX 12 9 1 0
VVECTOR 7 17
SWIDTH1 0 -1174
DWIDTH1 0 -21
BITMAP 
FDE0
E730
C630
C630
C630
C630
C630
C630
C630
ENDCHAR
STARTCHAR n
ENCODING 110
SWIDTH 559 0
DWIDTH 10 0
BBX 8 9 1 0
VVECTOR 5 17
SWIDTH1 0 -1174
DWIDTH1 0 -21
BITMAP 
DE
E3
C3
C3
C3
C3
C3
C3
C3
ENDCHAR
STARTCHAR o
ENCODING 111
SWIDTH 559 0
DWIDTH 10 0
BBX 8 9 1 0
VVECTOR 5 17
SWIDTH1 0 -1174
DWIDTH1 0 -21
BITMAP 
3C
66
C3
C3
C3
C3
C3
66
3C
ENDCHAR
STARTCHAR p
ENCODING 112
SWIDTH 559 0
DWIDTH 10 0
BBX 8 12 1 -3
VVECTOR 5 17
SWIDTH1 0 -1174
DWIDTH1 0 -21
BITMAP 
DC
E6
C3
C3
C3
C3
C3
E6
DC
C0
C0
C0
ENDCHAR
STARTCHAR q
ENCODING 113
SWIDTH 559 0
DWIDTH 10 0
BBX 8 12 1 -3
VVECTOR 5 17
SWIDTH1 0 -1174
DWIDTH1 0 -21
BITMAP 
3B
67
C3
C3
C3
C3
C3
67
3B
03
03
03
ENDCHAR
STARTCHAR r
ENCODING 114
SWIDTH 335 0
DWIDTH 6 0
BBX 5 9 1 0
VVECTOR 4 17
SWIDTH1 0 -1174
DWIDTH1 0 -21
BITMAP 
D8
E0
C0
C0
C0
C0
C0
C0
C0
ENDCHAR
STARTCHAR s
ENCODING 115
SWIDTH 503 0
DWIDTH 9 0
BBX 7 9 1 0
VVECTOR 5 17
SWIDTH1 0 -1174
DWIDTH1 0 -21
BITMAP 
78
C6
C0
78
1C
06
C6
C6
78
ENDCHAR
STARTCHAR t
ENCODING 116
SWIDTH 280 0
DWIDTH 5 0
BBX 5 12 0 0
VVECTOR 3 17
SWIDTH1 0 -1174
DWIDTH1 0 -21
BITMAP 
60
60
60
F8
60
60
60
60
60
60
60
78
ENDCHAR
STARTCHAR u
ENCODING 117
SWIDTH 559 0
DWIDTH 10 0
BBX 8 9 1 0
VVECTOR 5 17
SWIDTH1 0 -1174
DWIDTH1 0 -21
BITMAP 
C3
C3
C3
C3
C3
C3
C3
C7
7B
ENDCHAR
STARTCHAR v
ENCODING 118
SWIDTH 447 0
DWIDTH 8 0
BBX 8 9 0 0
VVECTOR 4 17
SWIDTH1 0 -1174
DWIDTH1 0 -21
BITMAP 
C3
42
42
66
24
24
3C
18
18
ENDCHAR
STARTCHAR w
ENCODING 119
SWIDTH 727 0
DWIDTH 13 0
BBX 13 9 0 0
VVECTOR 7 17
SWIDTH1 0 -1174
DWIDTH1 0 -21
BITMAP 
C218
4210
6530
6530
2520
3DE0
3DE0
18C0
18C0
ENDCHAR
STARTCHAR x
ENCODING 120
SWIDTH 447 0
DWIDTH 8 0
BBX 8 9 0 0
VVECTOR 4 17
SWIDTH1 0 -1174
DWIDTH1 0 -21
BITMAP 
C3
66
3C
38
18
3C
24
66
C3
ENDCHAR
STARTCHAR y
ENCODING 121
SWIDTH 503 0
DWIDTH 9 0
BBX 9 12 0 -3
VVECTOR 5 17
SWIDTH1 0 -1174
DWIDTH1 0 -21
BITMAP 
C180
4100
6300
6300
3600
3600
1400
1C00
1C00
0800
1800
7000
ENDCHAR
STARTCHAR z
ENCODING 122
SWIDTH 447 0
DWIDTH 8 0
BBX 7 9 1 0
VVECTOR 5 17
SWIDTH1 0 -1174
DWIDTH1 0 -21
BITMAP 
FE
04
0C
18
10
30
60
C0
FE
ENDCHAR
STARTCHAR braceleft
ENCODING 123
SWIDTH 503 0
DWIDTH 9 0
BBX 6 16 2 -3
VVECTOR 6 17
SWIDTH1 0 -1174
DWIDTH1 0 -21
BITMAP 
1C
30
30
30
30
30
30
C0
70
30
30
30
30
30
30
1C
ENDCHAR
STARTCHAR bar
ENCODING 124
SWIDTH 503 0
DWIDTH 9 0
BBX 1 18 4 -4
VVECTOR 5 17
SWIDTH1 0 -1174
DWIDTH1 0 -21
BITMAP 
80
80
80
80
80
80
80
80
80
80
80
80
80
80
80
80
80
80
ENDCHAR
STARTCHAR braceright
ENCODING 125
SWIDTH 503 0
DWIDTH 9 0
BBX 6 16 1 -3
VVECTOR 4 17
SWIDTH1 0 -1174
DWIDTH1 0 -21
BITMAP 
E0
30
30
30
30
30
30
0C
38
30
30
30
30
30
30
E0
ENDCHAR
STARTCHAR asciitilde
ENCODING 126
SWIDTH 1006 0
DWIDTH 18 0
BBX 10 3 4 9
VVECTOR 9 17
SWIDTH1 0 -1174
DWIDTH1 0 -21
BITMAP 
7840
8C40
8780
ENDCHAR
STARTCHAR char7F
ENCODING 127
SWIDTH 0 0
DWIDTH 0 0
BBX 0 0 0 -4
VVECTOR 0 -4
SWIDTH1 0 0
DWIDTH1 0 0
BITMAP 
ENDCHAR
STARTCHAR Ccedilla
ENCODING 128
SWIDTH 727 0
DWIDTH 13 0
BBX 11 16 1 -3
VVECTOR 7 17
SWIDTH1 0 -1174
DWIDTH1 0 -21
BITMAP 
0F00
3F80
30C0
6060
C000
C000
C000
C000
C060
6060
30C0
3F80
0F00
0380
0080
0780
ENDCHAR
STARTCHAR udieresis
ENCODING 129
SWIDTH 559 0
DWIDTH 10 0
BBX 8 13 1 0
VVECTOR 5 17
SWIDTH1 0 -1174
DWIDTH1 0 -21
BITMAP 
36
36
00
00
C3
C3
C3
C3
C3
C3
C3
C7
7B
ENDCHAR
STARTCHAR eacute
ENCODING 130
SWIDTH 559 0
DWIDTH 10 0
BBX 8 14 1 0
VVECTOR 5 17
SWIDTH1 0 -1174
DWIDTH1 0 -21
BITMAP 
06
0C
18
00
00
3C
66
43
C3
FF
C0
C3
66
3C
ENDCHAR
STARTCHAR acircumflex
ENCODING 131
SWIDTH 559 0
DWIDTH 10 0
BBX 9 14 1 0
VVECTOR 6 17
SWIDTH1 0 -1174
DWIDTH1 0 -21
BITMAP 
1C00
1400
2200
0000
0000
3E00
6300
4300
0300
3F00
E300
C300
C700
7B80
ENDCHAR
STARTCHAR adieresis
ENCODING 132
SWIDTH 559 0
DWIDTH 10 0
BBX 9 13 1 0
VVECTOR 6 17
SWIDTH1 0 -1174
DWIDTH1 0 -21
BITMAP 
3600
3600
0000
0000
3E00
6300
4300
0300
3F00
E300
C300
C700
7B80
ENDCHAR
STARTCHAR agrave
ENCODING 133
SWIDTH 559 0
DWIDTH 10 0
BBX 9 14 1 0
VVECTOR 6 17
SWIDTH1 0 -1174
DWIDTH1 0 -21
BITMAP 
3000
1800
0C00
0000
0000
3E00
6300
4300
0300
3F00
E300
C300
C700
7B80
ENDCHAR
STARTCHAR aring
ENCODING 134
SWIDTH 559 0
DWIDTH 10 0
BBX 9 14 1 0
VVECTOR 6 17
SWIDTH1 0 -1174
DWIDTH1 0 -21
BITMAP 
1800
1400
1400
1800
0000
3E00
6300
4300
0300
3F00
E300
C300
C700
7B80
ENDCHAR
STARTCHAR ccedilla
ENCODING 135
SWIDTH 503 0
DWIDTH 9 0
BBX 8 12 1 -3
VVECTOR 6 17
SWIDTH1 0 -1174
DWIDTH1 0 -21
BITMAP 
3C
66
C3
C0
C0
C0
C3
66
3C
0E
02
1E
ENDCHAR
STARTCHAR ecircumflex
ENCODING 136
SWIDTH 559 0
DWIDTH 10 0
BBX 8 14 1 0
VVECTOR 5 17
SWIDTH1 0 -1174
DWIDTH1 0 -21
BITMAP 
1C
14
22
00
00
3C
66
43
C3
FF
C0
C3
66
3C
ENDCHAR
STARTCHAR edieresis
ENCODING 137
SWIDTH 559 0
DWIDTH 10 0
BBX 8 13 1 0
VVECTOR 5 17
SWIDTH1 0 -1174
DWIDTH1 0 -21
BITMAP 
36
36
00
00
3C
66
43
C3
FF
C0
C3
66
3C
ENDCHAR
STARTCHAR egrave
ENCODING 138
SWIDTH 559 0
DWIDTH 10 0
BBX 8 14 1 0
VVECTOR 5 17
SWIDTH1 0 -1174
DWIDTH1 0 -21
BITMAP 
30
18
0C
00
00
3C
66
43
C3
FF
C0
C3
66
3C
ENDCHAR
STARTCHAR idieresis
ENCODING 139
SWIDTH 224 0
DWIDTH 4 0
BBX 5 13 0 0
VVECTOR 3 17
SWIDTH1 0 -1174
DWIDTH1 0 -21
BITMAP 
D8
D8
00
00
60
60
60
60
60
60
60
60
60
ENDCHAR
STARTCHAR icircumflex
ENCODING 140
SWIDTH 224 0
DWIDTH 4 0
BBX 5 14 0 0
VVECTOR 3 17
SWIDTH1 0 -1174
DWIDTH1 0 -21
BITMAP 
70
50
88
00
00
60
60
60
60
60
60
60
60
60
ENDCHAR
STARTCHAR igrave
ENCODING 141
SWIDTH 224 0
DWIDTH 4 0
BBX 4 14 0 0
VVECTOR 2 17
SWIDTH1 0 -1174
DWIDTH1 0 -21
BITMAP 
C0
60
30
00
00
60
60
60
60
60
60
60
60
60
ENDCHAR
STARTCHAR Adieresis
ENCODING 142
SWIDTH 615 0
DWIDTH 11 0
BBX 11 16 0 0
VVECTOR 6 17
SWIDTH1 0 -1174
DWIDTH1 0 -21
BITMAP 
1B00
1B00
0000
0E00
0E00
0A00
1B00
1B00
1100
3180
3180
3F80
60C0
60C0
4040
C060
ENDCHAR
STARTCHAR Aring
ENCODING 143
SWIDTH 615 0
DWIDTH 11 0
BBX 11 17 0 0
VVECTOR 6 17
SWIDTH1 0 -1174
DWIDTH1 0 -21
BITMAP 
0E00
0A00
0A00
0E00
0E00
0E00
0A00
1B00
1B00
1100
3180
3180
3F80
60C0
60C0
4040
C060
ENDCHAR
STARTCHAR Eacute
ENCODING 144
SWIDTH 615 0
DWIDTH 11 0
BBX 9 17 1 0
VVECTOR 6 17
SWIDTH1 0 -1174
DWIDTH1 0 -21
BITMAP 
0600
0C00
1800
0000
FF80
C000
C000
C000
C000
C000
FF00
C000
C000
C000
C000
C000
FF80
ENDCHAR
STARTCHAR ae
ENCODING 145
SWIDTH 894 0
DWIDTH 16 0
BBX 14 9 1 0
VVECTOR 8 17
SWIDTH1 0 -1174
DWIDTH1 0 -21
BITMAP 
3EF0
6398
430C
030C
3FFC
E300
C30C
C798
78F0
ENDCHAR
STARTCHAR AE
ENCODING 146
SWIDTH 950 0
DWIDTH 17 0
BBX 16 13 0 0
VVECTOR 8 17
SWIDTH1 0 -1174
DWIDTH1 0 -21
BITMAP 
07FF
0D80
0980
0980
1980
1180
31FE
3180
3F80
7F80
6180
4180
C1FF
ENDCHAR
STARTCHAR ocircumflex
ENCODING 147
SWIDTH 559 0
DWIDTH 10 0
BBX 8 14 1 0
VVECTOR 5 17
SWIDTH1 0 -1174
DWIDTH1 0 -21
BITMAP 
1C
14
22
00
00
3C
66
C3
C3
C3
C3
C3
66
3C
ENDCHAR
STARTCHAR odieresis
ENCODING 148
SWIDTH 559 0
DWIDTH 10 0
BBX 8 13 1 0
VVECTOR 5 17
SWIDTH1 0 -1174
DWIDTH1 0 -21
BITMAP 
36
36
00
00
3C
66
C3
C3
C3
C3
C3
66
3C
ENDCHAR
STARTCHAR ograve
ENCODING 149
SWIDTH 559 0
DWIDTH 10 0
BBX 8 14 1 0
VVECTOR 5 17
SWIDTH1 0 -1174
DWIDTH1 0 -21
BITMAP 
30
18
0C
00
00
3C
66
C3
C3
C3
C3
C3
66
3C
ENDCHAR
STARTCHAR ucircumflex
ENCODING 150
SWIDTH 559 0
DWIDTH 10 0
BBX 8 14 1 0
VVECTOR 5 17
SWIDTH1 0 -1174
DWIDTH1 0 -21
BITMAP 
1C
14
22
00
00
C3
C3
C3
C3
C3
C3
C3
C7
7B
ENDCHAR
STARTCHAR ugrave
ENCODING 151
SWIDTH 559 0
DWIDTH 10 0
BBX 8 14 1 0
VVECTOR 5 17
SWIDTH1 0 -1174
DWIDTH1 0 -21
BITMAP 
30
18
0C
00
00
C3
C3
C3
C3
C3
C3
C3
C7
7B
ENDCHAR
STARTCHAR ydieresis
ENCODING 152
SWIDTH 503 0
DWIDTH 9 0
BBX 9 16 0 -3
VVECTOR 5 17
SWIDTH1 0 -1174
DWIDTH1 0 -21
BITMAP 
3600
3600
0000
0000
C180
4100
6300
6300
3600
3600
1400
1C00
1C00
0800
1800
7000
ENDCHAR
STARTCHAR Odieresis
ENCODING 153
SWIDTH 783 0
DWIDTH 14 0
BBX 12 16 1 0
VVECTOR 7 17
SWIDTH1 0 -1174
DWIDTH1 0 -21
BITMAP 
0D80
0D80
0000
0F00
1F80
30C0
6060
C030
C030
C030
C030
C030
6060
30C0
1F80
0F00
ENDCHAR
STARTCHAR Udieresis
ENCODING 154
SWIDTH 727 0
DWIDTH 13 0
BBX 11 16 1 0
VVECTOR 7 17
SWIDTH1 0 -1174
DWIDTH1 0 -21
BITMAP 
1B00
1B00
0000
C060
C060
C060
C060
C060
C060
C060
C060
C060
C060
60C0
3F80
1F00
ENDCHAR
STARTCHAR oslash
ENCODING 155
SWIDTH 559 0
DWIDTH 10 0
BBX 8 9 1 0
VVECTOR 5 17
SWIDTH1 0 -1174
DWIDTH1 0 -21
BITMAP 
3D
66
C7
CB
CB
D3
E3
66
BC
ENDCHAR
STARTCHAR sterling
ENCODING 156
SWIDTH 559 0
DWIDTH 10 0
BBX 9 12 1 0
VVECTOR 6 17
SWIDTH1 0 -1174
DWIDTH1 0 -21
BITMAP 
3E00
6380
C180
C000
6000
FC00
3000
3000
2000
6000
FD80
C780
ENDCHAR
STARTCHAR Oslash
ENCODING 157
SWIDTH 783 0
DWIDTH 14 0
BBX 12 13 1 0
VVECTOR 7 17
SWIDTH1 0 -1174
DWIDTH1 0 -21
BITMAP 
0F10
1FA0
30E0
60E0
C130
C230
C430
C430
C830
7060
70C0
5F80
8F00
ENDCHAR
STARTCHAR currency
ENCODING 158
SWIDTH 615 0
DWIDTH 11 0
BBX 9 9 1 4
VVECTOR 6 17
SWIDTH1 0 -1174
DWIDTH1 0 -21
BITMAP 
8080
5D00
2200
4100
4100
4100
2200
5D00
8080
ENDCHAR
STARTCHAR florin
ENCODING 159
SWIDTH 559 0
DWIDTH 10 0
BBX 9 16 0 -3
VVECTOR 4 17
SWIDTH1 0 -1174
DWIDTH1 0 -21
BITMAP 
0380
0600
0400
0C00
0C00
3F00
0C00
0800
1800
1800
1800
1800
1000
3000
3000
E000
ENDCHAR
STARTCHAR aacute
ENCODING 160
SWIDTH 559 0
DWIDTH 10 0
BBX 9 14 1 0
VVECTOR 6 17
SWIDTH1 0 -1174
DWIDTH1 0 -21
BITMAP 
0600
0C00
1800
0000
0000
3E00
6300
4300
0300
3F00
E300
C300
C700
7B80
ENDCHAR
STARTCHAR iacute
ENCODING 161
SWIDTH 224 0
DWIDTH 4 0
BBX 4 14 1 0
VVECTOR 4 17
SWIDTH1 0 -1174
DWIDTH1 0 -21
BITMAP 
30
60
C0
00
00
C0
C0
C0
C0
C0
C0
C0
C0
C0
ENDCHAR
STARTCHAR oacute
ENCODING 162
SWIDTH 559 0
DWIDTH 10 0
BBX 8 14 1 0
VVECTOR 5 17
SWIDTH1 0 -1174
DWIDTH1 0 -21
BITMAP 
06
0C
18
00
00
3C
66
C3
C3
C3
C3
C3
66
3C
ENDCHAR
STARTCHAR uacute
ENCODING 163
SWIDTH 559 0
DWIDTH 10 0
BBX 8 14 1 0
VVECTOR 5 17
SWIDTH1 0 -1174
DWIDTH1 0 -21
BITMAP 
06
0C
18
00
00
C3
C3
C3
C3
C3
C3
C3
C7
7B
ENDCHAR
STARTCHAR ntilde
ENCODING 164
SWIDTH 559 0
DWIDTH 10 0
BBX 8 13 1 0
VVECTOR 5 17
SWIDTH1 0 -1174
DWIDTH1 0 -21
BITMAP 
1A
2C
00
00
DE
E3
C3
C3
C3
C3
C3
C3
C3
ENDCHAR
STARTCHAR Ntilde
ENCODING 165
SWIDTH 727 0
DWIDTH 13 0
BBX 11 16 1 0
VVECTOR 7 17
SWIDTH1 0 -1174
DWIDTH1 0 -21
BITMAP 
0D00
1600
0000
E060
E060
F060
D860
D860
CC60
C460
C660
C360
C360
C1E0
C0E0
C0E0
ENDCHAR
STARTCHAR ordfeminine
ENCODING 166
SWIDTH 391 0
DWIDTH 7 0
BBX 6 6 1 6
VVECTOR 5 17
SWIDTH1 0 -1174
DWIDTH1 0 -21
BITMAP 
78
84
7C
84
8C
74
ENDCHAR
STARTCHAR ordmasculine
ENCODING 167
SWIDTH 447 0
DWIDTH 8 0
BBX 7 6 1 6
VVECTOR 5 17
SWIDTH1 0 -1174
DWIDTH1 0 -21
BITMAP 
7C
C6
82
82
C6
7C
ENDCHAR
STARTCHAR questiondown
ENCODING 168
SWIDTH 503 0
DWIDTH 9 0
BBX 8 13 1 0
VVECTOR 6 17
SWIDTH1 0 -1174
DWIDTH1 0 -21
BITMAP 
18
18
00
00
18
18
30
60
C0
C3
C3
E6
3C
ENDCHAR
STARTCHAR quotedblleft
ENCODING 169
SWIDTH 391 0
DWIDTH 7 0
BBX 5 4 1 9
VVECTOR 4 17
SWIDTH1 0 -1174
DWIDTH1 0 -21
BITMAP 
48
90
D8
D8
ENDCHAR
STARTCHAR quotedblright
ENCODING 170
SWIDTH 391 0
DWIDTH 7 0
BBX 5 4 1 9
VVECTOR 4 17
SWIDTH1 0 -1174
DWIDTH1 0 -21
BITMAP 
D8
D8
48
90
ENDCHAR
STARTCHAR guilsinglleft
ENCODING 171
SWIDTH 224 0
DWIDTH 4 0
BBX 3 6 0 2
VVECTOR 1 17
SWIDTH1 0 -1174
DWIDTH1 0 -21
BITMAP 
20
60
C0
C0
60
20
ENDCHAR
STARTCHAR guilsinglright
ENCODING 172
SWIDTH 224 0
DWIDTH 4 0
BBX 3 6 1 2
VVECTOR 3 17
SWIDTH1 0 -1174
DWIDTH1 0 -21
BITMAP 
80
C0
60
60
C0
80
ENDCHAR
STARTCHAR exclamdown
ENCODING 173
SWIDTH 335 0
DWIDTH 6 0
BBX 2 13 2 0
VVECTOR 3 17
SWIDTH1 0 -1174
DWIDTH1 0 -21
BITMAP 
C0
C0
00
C0
C0
C0
C0
C0
C0
C0
C0
C0
C0
ENDCHAR
STARTCHAR guillemotleft
ENCODING 174
SWIDTH 447 0
DWIDTH 8 0
BBX 7 6 0 2
VVECTOR 3 17
SWIDTH1 0 -1174
DWIDTH1 0 -21
BITMAP 
22
66
CC
CC
66
22
ENDCHAR
STARTCHAR guillemotright
ENCODING 175
SWIDTH 447 0
DWIDTH 8 0
BBX 7 6 1 2
VVECTOR 5 17
SWIDTH1 0 -1174
DWIDTH1 0 -21
BITMAP 
88
CC
66
66
CC
88
ENDCHAR
STARTCHAR atilde
ENCODING 176
SWIDTH 559 0
DWIDTH 10 0
BBX 9 13 1 0
VVECTOR 6 17
SWIDTH1 0 -1174
DWIDTH1 0 -21
BITMAP 
1A00
2C00
0000
0000
3E00
6300
4300
0300
3F00
E300
C300
C700
7B80
ENDCHAR
STARTCHAR otilde
ENCODING 177
SWIDTH 559 0
DWIDTH 10 0
BBX 8 13 1 0
VVECTOR 5 17
SWIDTH1 0 -1174
DWIDTH1 0 -21
BITMAP 
1A
2C
00
00
3C
66
C3
C3
C3
C3
C3
66
3C
ENDCHAR
STARTCHAR yen
ENCODING 178
SWIDTH 615 0
DWIDTH 11 0
BBX 10 12 1 0
VVECTOR 7 17
SWIDTH1 0 -1174
DWIDTH1 0 -21
BITMAP 
C0C0
6180
2100
3300
F3C0
1E00
FFC0
0C00
0C00
0C00
0C00
0C00
ENDCHAR
STARTCHAR cent
ENCODING 179
SWIDTH 559 0
DWIDTH 10 0
BBX 9 13 1 -2
VVECTOR 6 17
SWIDTH1 0 -1174
DWIDTH1 0 -21
BITMAP 
0200
0200
3E00
6700
C580
C800
C800
C800
D180
7300
3E00
2000
2000
ENDCHAR
STARTCHAR oe
ENCODING 180
SWIDTH 894 0
DWIDTH 16 0
BBX 14 9 1 0
VVECTOR 8 17
SWIDTH1 0 -1174
DWIDTH1 0 -21
BITMAP 
3CF0
6798
430C
C30C
C3FC
C300
C30C
6798
3CF0
ENDCHAR
STARTCHAR OE
ENCODING 181
SWIDTH 1118 0
DWIDTH 20 0
BBX 18 13 1 0
VVECTOR 10 17
SWIDTH1 0 -1174
DWIDTH1 0 -21
BITMAP 
1FFFC0
70E000
606000
E06000
C06000
C06000
C07F80
C06000
C06000
C06000
606000
70E000
3FFFC0
ENDCHAR
STARTCHAR Agrave
ENCODING 182
SWIDTH 615 0
DWIDTH 11 0
BBX 11 17 0 0
VVECTOR 6 17
SWIDTH1 0 -1174
DWIDTH1 0 -21
BITMAP 
1800
0C00
0600
0000
0E00
0E00
0A00
1B00
1B00
1100
3180
3180
3F80
60C0
60C0
4040
C060
ENDCHAR
STARTCHAR Atilde
ENCODING 183
SWIDTH 615 0
DWIDTH 11 0
BBX 11 16 0 0
VVECTOR 6 17
SWIDTH1 0 -1174
DWIDTH1 0 -21
BITMAP 
0D00
1600
0000
0E00
0E00
0A00
1B00
1B00
1100
3180
3180
3F80
60C0
60C0
4040
C060
ENDCHAR
STARTCHAR Otilde
ENCODING 184
SWIDTH 783 0
DWIDTH 14 0
BBX 12 16 1 0
VVECTOR 7 17
SWIDTH1 0 -1174
DWIDTH1 0 -21
BITMAP 
0680
0B00
0000
0F00
1F80
30C0
6060
C030
C030
C030
C030
C030
6060
30C0
1F80
0F00
ENDCHAR
STARTCHAR section
ENCODING 185
SWIDTH 503 0
DWIDTH 9 0
BBX 7 15 1 -2
VVECTOR 5 17
SWIDTH1 0 -1174
DWIDTH1 0 -21
BITMAP 
38
6C
64
60
30
5C
CE
C6
66
3C
18
0C
44
6C
38
ENDCHAR
STARTCHAR daggerdbl
ENCODING 186
SWIDTH 503 0
DWIDTH 9 0
BBX 8 15 1 -2
VVECTOR 6 17
SWIDTH1 0 -1174
DWIDTH1 0 -21
BITMAP 
18
18
18
18
FF
18
18
18
18
18
FF
18
18
18
18
ENDCHAR
STARTCHAR dagger
ENCODING 187
SWIDTH 503 0
DWIDTH 9 0
BBX 8 15 1 -2
VVECTOR 6 17
SWIDTH1 0 -1174
DWIDTH1 0 -21
BITMAP 
18
18
18
18
FF
18
18
18
18
18
18
18
18
18
18
ENDCHAR
STARTCHAR paragraph
ENCODING 188
SWIDTH 503 0
DWIDTH 9 0
BBX 7 13 1 0
VVECTOR 5 17
SWIDTH1 0 -1174
DWIDTH1 0 -21
BITMAP 
3E
74
F4
F4
F4
74
14
14
14
14
14
14
14
ENDCHAR
STARTCHAR copyright
ENCODING 189
SWIDTH 839 0
DWIDTH 15 0
BBX 13 13 1 0
VVECTOR 8 17
SWIDTH1 0 -1174
DWIDTH1 0 -21
BITMAP 
0F00
10C0
2060
4F10
5890
9008
9008
9008
5890
4F10
2060
10C0
0F00
ENDCHAR
STARTCHAR registered
ENCODING 190
SWIDTH 839 0
DWIDTH 15 0
BBX 13 13 1 0
VVECTOR 8 17
SWIDTH1 0 -1174
DWIDTH1 0 -21
BITMAP 
0F00
10C0
2020
4F10
4898
8888
8F08
8908
8918
4890
2020
10C0
0F00
ENDCHAR
STARTCHAR trademark
ENCODING 191
SWIDTH 839 0
DWIDTH 15 0
BBX 9 5 3 8
VVECTOR 8 17
SWIDTH1 0 -1174
DWIDTH1 0 -21
BITMAP 
E880
4D80
4D80
4880
4A80
ENDCHAR
STARTCHAR quotedblbase
ENCODING 192
SWIDTH 391 0
DWIDTH 7 0
BBX 5 4 1 -2
VVECTOR 4 17
SWIDTH1 0 -1174
DWIDTH1 0 -21
BITMAP 
D8
D8
48
90
ENDCHAR
STARTCHAR ellipsis
ENCODING 193
SWIDTH 1006 0
DWIDTH 18 0
BBX 14 2 2 0
VVECTOR 9 17
SWIDTH1 0 -1174
DWIDTH1 0 -21
BITMAP 
C30C
C30C
ENDCHAR
STARTCHAR perthousand
ENCODING 194
SWIDTH 1230 0
DWIDTH 22 0
BBX 21 12 1 0
VVECTOR 12 17
SWIDTH1 0 -1174
DWIDTH1 0 -21
BITMAP 
782000
CC4000
844000
848000
CD8000
790000
0278F0
06CD98
048508
088508
08CD98
1078F0
ENDCHAR
STARTCHAR bullet
ENCODING 195
SWIDTH 671 0
DWIDTH 12 0
BBX 9 9 2 2
VVECTOR 7 17
SWIDTH1 0 -1174
DWIDTH1 0 -21
BITMAP 
1C00
7F00
7F00
FF80
FF80
FF80
7F80
7F00
1C00
ENDCHAR
STARTCHAR endash
ENCODING 196
SWIDTH 503 0
DWIDTH 9 0
BBX 9 1 0 5
VVECTOR 5 17
SWIDTH1 0 -1174
DWIDTH1 0 -21
BITMAP 
FF80
ENDCHAR
STARTCHAR emdash
ENCODING 197
SWIDTH 1006 0
DWIDTH 18 0
BBX 18 1 0 5
VVECTOR 9 17
SWIDTH1 0 -1174
DWIDTH1 0 -21
BITMAP 
FFFFC0
ENDCHAR
STARTCHAR degree
ENCODING 198
SWIDTH 335 0
DWIDTH 6 0
BBX 5 5 1 8
VVECTOR 4 17
SWIDTH1 0 -1174
DWIDTH1 0 -21
BITMAP 
70
88
88
88
70
ENDCHAR
STARTCHAR Aacute
ENCODING 199
SWIDTH 615 0
DWIDTH 11 0
BBX 11 17 0 0
VVECTOR 6 17
SWIDTH1 0 -1174
DWIDTH1 0 -21
BITMAP 
0300
0600
0C00
0000
0E00
0E00
0A00
1B00
1B00
1100
3180
3180
3F80
60C0
60C0
4040
C060
ENDCHAR
STARTCHAR Acircumflex
ENCODING 200
SWIDTH 615 0
DWIDTH 11 0
BBX 11 17 0 0
VVECTOR 6 17
SWIDTH1 0 -1174
DWIDTH1 0 -21
BITMAP 
0E00
0A00
1100
0000
0E00
0E00
0A00
1B00
1B00
1100
3180
3180
3F80
60C0
60C0
4040
C060
ENDCHAR
STARTCHAR Egrave
ENCODING 201
SWIDTH 615 0
DWIDTH 11 0
BBX 9 17 1 0
VVECTOR 6 17
SWIDTH1 0 -1174
DWIDTH1 0 -21
BITMAP 
3000
1800
0C00
0000
FF80
C000
C000
C000
C000
C000
FF00
C000
C000
C000
C000
C000
FF80
ENDCHAR
STARTCHAR Ecircumflex
ENCODING 202
SWIDTH 615 0
DWIDTH 11 0
BBX 9 17 1 0
VVECTOR 6 17
SWIDTH1 0 -1174
DWIDTH1 0 -21
BITMAP 
1C00
1400
2200
0000
FF80
C000
C000
C000
C000
C000
FF00
C000
C000
C000
C000
C000
FF80
ENDCHAR
STARTCHAR Edieresis
ENCODING 203
SWIDTH 615 0
DWIDTH 11 0
BBX 9 16 1 0
VVECTOR 6 17
SWIDTH1 0 -1174
DWIDTH1 0 -21
BITMAP 
3600
3600
0000
FF80
C000
C000
C000
C000
C000
FF00
C000
C000
C000
C000
C000
FF80
ENDCHAR
STARTCHAR Igrave
ENCODING 204
SWIDTH 224 0
DWIDTH 4 0
BBX 4 17 0 0
VVECTOR 2 17
SWIDTH1 0 -1174
DWIDTH1 0 -21
BITMAP 
C0
60
30
00
60
60
60
60
60
60
60
60
60
60
60
60
60
ENDCHAR
STARTCHAR Iacute
ENCODING 205
SWIDTH 224 0
DWIDTH 4 0
BBX 4 17 1 0
VVECTOR 4 17
SWIDTH1 0 -1174
DWIDTH1 0 -21
BITMAP 
30
60
C0
00
C0
C0
C0
C0
C0
C0
C0
C0
C0
C0
C0
C0
C0
ENDCHAR
STARTCHAR Icircumflex
ENCODING 206
SWIDTH 224 0
DWIDTH 4 0
BBX 5 17 0 0
VVECTOR 3 17
SWIDTH1 0 -1174
DWIDTH1 0 -21
BITMAP 
70
50
88
00
60
60
60
60
60
60
60
60
60
60
60
60
60
ENDCHAR
STARTCHAR Idieresis
ENCODING 207
SWIDTH 224 0
DWIDTH 4 0
BBX 5 16 0 0
VVECTOR 3 17
SWIDTH1 0 -1174
DWIDTH1 0 -21
BITMAP 
D8
D8
00
60
60
60
60
60
60
60
60
60
60
60
60
60
ENDCHAR
STARTCHAR Ograve
ENCODING 208
SWIDTH 783 0
DWIDTH 14 0
BBX 12 17 1 0
VVECTOR 7 17
SWIDTH1 0 -1174
DWIDTH1 0 -21
BITMAP 
0C00
0600
0300
0000
0F00
1F80
30C0
6060
C030
C030
C030
C030
C030
6060
30C0
1F80
0F00
ENDCHAR
STARTCHAR Oacute
ENCODING 209
SWIDTH 783 0
DWIDTH 14 0
BBX 12 17 1 0
VVECTOR 7 17
SWIDTH1 0 -1174
DWIDTH1 0 -21
BITMAP 
0180
0300
0600
0000
0F00
1F80
30C0
6060
C030
C030
C030
C030
C030
6060
30C0
1F80
0F00
ENDCHAR
STARTCHAR Ocircumflex
ENCODING 210
SWIDTH 783 0
DWIDTH 14 0
BBX 12 17 1 0
VVECTOR 7 17
SWIDTH1 0 -1174
DWIDTH1 0 -21
BITMAP 
0700
0500
0880
0000
0F00
1F80
30C0
6060
C030
C030
C030
C030
C030
6060
30C0
1F80
0F00
ENDCHAR
STARTCHAR Scaron
ENCODING 211
SWIDTH 615 0
DWIDTH 11 0
BBX 9 17 1 0
VVECTOR 6 17
SWIDTH1 0 -1174
DWIDTH1 0 -21
BITMAP 
2200
1400
1C00
0000
1C00
3E00
6300
C180
C000
7800
1F00
0380
C180
C180
E300
7E00
1C00
ENDCHAR
STARTCHAR scaron
ENCODING 212
SWIDTH 503 0
DWIDTH 9 0
BBX 7 14 1 0
VVECTOR 5 17
SWIDTH1 0 -1174
DWIDTH1 0 -21
BITMAP 
44
28
38
00
00
78
C6
C0
78
1C
06
C6
C6
78
ENDCHAR
STARTCHAR Ugrave
ENCODING 213
SWIDTH 727 0
DWIDTH 13 0
BBX 11 17 1 0
VVECTOR 7 17
SWIDTH1 0 -1174
DWIDTH1 0 -21
BITMAP 
1800
0C00
0600
0000
C060
C060
C060
C060
C060
C060
C060
C060
C060
C060
60C0
3F80
1F00
ENDCHAR
STARTCHAR Uacute
ENCODING 214
SWIDTH 727 0
DWIDTH 13 0
BBX 11 17 1 0
VVECTOR 7 17
SWIDTH1 0 -1174
DWIDTH1 0 -21
BITMAP 
0300
0600
0C00
0000
C060
C060
C060
C060
C060
C060
C060
C060
C060
C060
60C0
3F80
1F00
ENDCHAR
STARTCHAR Ucircumflex
ENCODING 215
SWIDTH 727 0
DWIDTH 13 0
BBX 11 17 1 0
VVECTOR 7 17
SWIDTH1 0 -1174
DWIDTH1 0 -21
BITMAP 
0E00
0A00
1100
0000
C060
C060
C060
C060
C060
C060
C060
C060
C060
C060
60C0
3F80
1F00
ENDCHAR
STARTCHAR Ydieresis
ENCODING 216
SWIDTH 671 0
DWIDTH 12 0
BBX 12 16 0 0
VVECTOR 6 17
SWIDTH1 0 -1174
DWIDTH1 0 -21
BITMAP 
1B00
1B00
0000
E070
6060
30C0
30C0
1980
0F00
0F00
0600
0600
0600
0600
0600
0600
ENDCHAR
STARTCHAR germandbls
ENCODING 217
SWIDTH 559 0
DWIDTH 10 0
BBX 8 13 1 0
VVECTOR 5 17
SWIDTH1 0 -1174
DWIDTH1 0 -21
BITMAP 
3C
E6
C6
C6
C6
DC
C6
C3
C3
C3
C3
C6
DC
ENDCHAR
STARTCHAR charDA
ENCODING 218
SWIDTH 0 0
DWIDTH 0 0
BBX 0 0 0 -4
VVECTOR 0 -4
SWIDTH1 0 0
DWIDTH1 0 0
BITMAP 
ENDCHAR
STARTCHAR charDB
ENCODING 219
SWIDTH 0 0
DWIDTH 0 0
BBX 0 0 0 -4
VVECTOR 0 -4
SWIDTH1 0 0
DWIDTH1 0 0
BITMAP 
ENDCHAR
STARTCHAR charDC
ENCODING 220
SWIDTH 0 0
DWIDTH 0 0
BBX 0 0 0 -4
VVECTOR 0 -4
SWIDTH1 0 0
DWIDTH1 0 0
BITMAP 
ENDCHAR
STARTCHAR charDD
ENCODING 221
SWIDTH 0 0
DWIDTH 0 0
BBX 0 0 0 -4
VVECTOR 0 -4
SWIDTH1 0 0
DWIDTH1 0 0
BITMAP 
ENDCHAR
STARTCHAR charDE
ENCODING 222
SWIDTH 0 0
DWIDTH 0 0
BBX 0 0 0 -4
VVECTOR 0 -4
SWIDTH1 0 0
DWIDTH1 0 0
BITMAP 
ENDCHAR
STARTCHAR charDF
ENCODING 223
SWIDTH 0 0
DWIDTH 0 0
BBX 0 0 0 -4
VVECTOR 0 -4
SWIDTH1 0 0
DWIDTH1 0 0
BITMAP 
ENDCHAR
STARTCHAR charE0
ENCODING 224
SWIDTH 0 0
DWIDTH 0 0
BBX 0 0 0 -4
VVECTOR 0 -4
SWIDTH1 0 0
DWIDTH1 0 0
BITMAP 
ENDCHAR
STARTCHAR beta
ENCODING 225
SWIDTH 559 0
DWIDTH 10 0
BBX 8 13 1 0
VVECTOR 5 17
SWIDTH1 0 -1174
DWIDTH1 0 -21
BITMAP 
3C
E6
C6
C6
C6
DC
C6
C3
C3
C3
C3
C6
DC
ENDCHAR
ENDFONT
